<svg id="Camada_1" data-name="Camada 1" xmlns="http://www.w3.org/2000/svg" viewBox="0 0 768 448"><defs><style>.cls-1{fill:#ff9429;}.cls-2{fill:#2d2014;}</style></defs><title>invoice</title><g id="Camada_2" data-name="Camada 2"><g id="Camada_1-2" data-name="Camada 1-2"><g id="Camada_2-2" data-name="Camada 2-2"><g id="Camada_1-2-2" data-name="Camada 1-2-2"><path class="cls-1" d="M11.91,0h744a12,12,0,0,1,12,12V436a12,12,0,0,1-12,12h-744a12,12,0,0,1-12-12V12A12,12,0,0,1,11.91,0Z" transform="translate(0.09)"/></g></g><path class="cls-2" d="M383.85,24.14c-110.38,0-199.83,89.54-199.8,199.92S273.59,423.89,384,423.86s199.8-89.5,199.8-199.86S494.29,24.14,383.91,24.14Zm0,382.84a183,183,0,1,1,183-183h0A183,183,0,0,1,383.85,407Z" transform="translate(0.09)"/></g><path d="M463.49,100.4H319.21a15,15,0,0,0-15,15v33.51a65.45,65.45,0,0,0,0,125.86V332.4a15,15,0,0,0,15,15h117.9a5.28,5.28,0,0,0,3.73-1.55l36.07-36.07a5.28,5.28,0,0,0,1.55-3.73V115.38a15,15,0,0,0-15-15ZM319.21,111H463.49a4.43,4.43,0,0,1,4.43,4.42v15.92H314.79V115.38a4.43,4.43,0,0,1,4.43-4.42ZM267.33,211.81a54.89,54.89,0,1,1,54.89,54.89,55,55,0,0,1-54.89-54.89ZM314.79,332.4V276.83a65.35,65.35,0,0,0,56.76-22.05h32.31a5.27,5.27,0,0,0,0-10.55h-24.8a65,65,0,0,0,8.36-26.74h16.44a5.27,5.27,0,0,0,0-10.55H387.48a65,65,0,0,0-8-26.74h24.36a5.27,5.27,0,0,0,0-10.55H372.23a65.34,65.34,0,0,0-57.44-22.85v-5H467.91V300.75h-21.1a15,15,0,0,0-15,15v21.1H319.21a4.43,4.43,0,0,1-4.43-4.42Zm127.6-3V315.72a4.43,4.43,0,0,1,4.42-4.43h13.64Zm0,0" transform="translate(0.09)"/><path d="M424.58,180.2h17.51a5.27,5.27,0,1,0,0-10.55H424.58a5.27,5.27,0,1,0,0,10.55Zm0,0" transform="translate(0.09)"/><path d="M424.58,217.49h17.51a5.27,5.27,0,1,0,0-10.55H424.58a5.27,5.27,0,1,0,0,10.55Zm0,0" transform="translate(0.09)"/><path d="M424.58,254.78h17.51a5.27,5.27,0,1,0,0-10.55H424.58a5.27,5.27,0,1,0,0,10.55Zm0,0" transform="translate(0.09)"/><path d="M442.09,292.07a5.27,5.27,0,1,0,0-10.55H392.76a5.27,5.27,0,1,0,0,10.55Zm0,0" transform="translate(0.09)"/><path d="M363.17,185.21l-6.43-6.43a9.17,9.17,0,0,0-13,0L310,212.52l-9.33-9.33a9.17,9.17,0,0,0-13,0l-6.44,6.44a9.19,9.19,0,0,0,0,13l22.25,22.25a9.17,9.17,0,0,0,13,0l46.67-46.67a9.19,9.19,0,0,0,0-13ZM310,236.42l-20.31-20.3,4.49-4.49,12.09,12.09a5.28,5.28,0,0,0,7.46,0l36.51-36.51,4.49,4.49Zm0,0" transform="translate(0.09)"/></g></svg>