<svg xmlns="http://www.w3.org/2000/svg" viewBox="0 0 768 448"><defs><style>.cls-1{fill:#ff9429;}.cls-2{fill:#422409;}</style></defs><title>Ativo 1</title><g id="Camada_2" data-name="Camada 2"><g id="Camada_1-2" data-name="Camada 1"><g id="Camada_2-2" data-name="Camada 2"><g id="Camada_1-2-2" data-name="Camada 1-2"><rect class="cls-1" width="768" height="448" rx="12" ry="12"/></g></g><path d="M441.73,161.35c0,39.44-35.26,71.41-59.73,71.41-22.91,0-59.73-32-59.73-71.41S328.94,89.94,382,89.94,441.73,121.91,441.73,161.35Z"/><rect x="363.65" y="198.72" width="36.71" height="44.71"/><path d="M461.08,312.62c0,43.68-35.41,39.49-79.08,39.49s-79.08,4.18-79.08-39.49a79.08,79.08,0,1,1,158.17,0Z"/><path class="cls-2" d="M382,42A179.11,179.11,0,1,0,561.11,221.08,179.11,179.11,0,0,0,382,42Zm0,330.19A151.08,151.08,0,1,1,533.08,221.08,151.08,151.08,0,0,1,382,372.16Z"/></g></g></svg>