<svg xmlns="http://www.w3.org/2000/svg" viewBox="0 0 768 448"><defs><style>.cls-1{fill:#ff9429;}.cls-2{fill:#2d2014;}</style></defs><title>Ativo 1</title><g id="Camada_2" data-name="Camada 2"><g id="Camada_1-2" data-name="Camada 1"><g id="Camada_2-2" data-name="Camada 2"><g id="Camada_1-2-2" data-name="Camada 1-2"><path class="cls-1" d="M12,0H756a12,12,0,0,1,12,12V436a12,12,0,0,1-12,12H12A12,12,0,0,1,0,436V12A12,12,0,0,1,12,0Z"/></g></g><path d="M184.48,86.73h0l-1.61,49.38c0,1.16-.95,6.33-2.11,6.33H175c-1.16,0-2.11-5.17-2.11-6.33l-1.61-49.38h-8.51l-1.65,50.78c0,1.16-.95,6.33-2.11,6.33h-5.8c-1.16,0-2.11-5.17-2.11-6.33l-1.65-50.78h0a9.06,9.06,0,0,0-9.06,9.06v54.55h.08a27.25,27.25,0,0,0,21.36,24.51C159.47,192,158,219.6,158,250.77c0,52-9.62,94.1,9.32,94.1,20.44,0,9.32-42.13,9.32-94.1,0-31.1-1.49-58.67-3.8-75.8a27.25,27.25,0,0,0,21.92-24.62h.08V97.07A10.34,10.34,0,0,0,184.48,86.73Z"/><path d="M657,136.27c0-27.36-13.61-49.54-30.4-49.54s-30.4,22.18-30.4,49.54c0,23.65,10.17,43.43,23.78,48.36-1.63,16.74-2.64,39.58-2.64,64.77,0,51.32-9.62,92.92,9.32,92.92,20.44,0,9.32-41.6,9.32-92.92,0-25.21-1-48.08-2.64-64.82C646.85,179.59,657,159.85,657,136.27Z"/><path d="M561,86.73H556.1L536.59,230.19c-1,7.23,2.83,14,8.26,14.94l-6,84.07a10.13,10.13,0,0,0,10,10.24h3.51a10.13,10.13,0,0,0,10-10.24V86.73Z"/><circle cx="370.45" cy="206.8" r="129.42"/><path class="cls-2" d="M370.45,101.28A105.52,105.52,0,1,0,476,206.8,105.52,105.52,0,0,0,370.45,101.28Zm0,202.13a96.61,96.61,0,1,1,96.61-96.61A96.61,96.61,0,0,1,370.45,303.41Z"/></g></g></svg>