<svg xmlns="http://www.w3.org/2000/svg" viewBox="0 0 1600 1600"><defs><style>.cls-1{fill:#20d3bd;}.cls-2{fill:#4fe0cb;}.cls-3{fill:#354666;}.cls-4{fill:#f4f4f4;}.cls-17,.cls-19,.cls-5{opacity:0.1;}.cls-6{fill:#16a085;}.cls-7{fill:#f2f2f2;}.cls-14,.cls-35,.cls-8{opacity:0.3;}.cls-9{fill:#e74c3c;}.cls-10{fill:#0e8fff;}.cls-11{fill:#3f3f3f;}.cls-12{opacity:0.2;}.cls-13,.cls-14,.cls-19{fill:#757575;}.cls-15,.cls-33{fill:#1abc9c;}.cls-16{fill:#34495e;}.cls-17,.cls-23,.cls-30,.cls-35{fill:#fff;}.cls-18{fill:#232700;}.cls-20{fill:#033;}.cls-21{fill:#344f84;}.cls-21,.cls-22,.cls-23,.cls-24,.cls-26,.cls-29,.cls-30,.cls-31,.cls-32,.cls-33{fill-rule:evenodd;}.cls-22,.cls-30{opacity:0.5;}.cls-23{opacity:0.8;}.cls-24{fill:#c6c6c6;}.cls-25{fill:#223666;}.cls-26{fill:#333;}.cls-27{fill:#f94b68;}.cls-28{fill:#3aceb2;}.cls-29{fill:#f05161;}.cls-31{fill:#f39c12;}.cls-32{fill:#ea844b;}.cls-34{fill:#a5a5a5;}.cls-36{fill:#ccc;}.cls-37{fill:#e2e2e2;}.cls-38{fill:#9ac900;}.cls-39{fill:#c3df00;}.cls-40{fill:#dfc300;}.cls-41{fill:#e85f00;}.cls-42{fill:#e53400;}.cls-43{fill:#0cc1b0;}.cls-44{fill:#f6b98a;}.cls-45{fill:#efb73a;}.cls-46{fill:#33839e;}.cls-47{fill:#5e3b28;}</style></defs><title>Ativo 1</title><g id="Camada_2" data-name="Camada 2"><g id="Web_and_Development" data-name="Web and Development"><g id="Analysis_System" data-name="Analysis System"><g id="Background"><rect id="Background_1" data-name="Background 1" class="cls-1" width="1600" height="1600"/><circle id="Background_2" data-name="Background 2" class="cls-2" cx="800.53" cy="800.8" r="532"/></g><g id="Analysis_System-2" data-name="Analysis System"><g id="Book"><g id="Book-2" data-name="Book"><rect class="cls-3" x="611.77" y="253.07" width="434.38" height="279.34"/><rect class="cls-4" x="628.56" y="263.61" width="403.18" height="259.19"/><rect class="cls-5" x="650.17" y="263.61" width="381.58" height="259.19"/><rect class="cls-6" x="853.48" y="277.06" width="154.13" height="10.14"/><rect class="cls-6" x="853.48" y="300.26" width="154.13" height="10.14"/><rect class="cls-6" x="848.67" y="327.73" width="154.14" height="10.14"/><rect class="cls-6" x="848.67" y="348.26" width="154.14" height="10.14"/><rect class="cls-6" x="848.67" y="370.66" width="154.14" height="10.14"/><rect class="cls-6" x="848.67" y="405.86" width="154.14" height="10.14"/><polygon class="cls-7" points="958.81 558.66 828.96 522.8 830.16 263.37 958.81 213.07 958.81 558.66"/><rect class="cls-8" x="1017.21" y="263.61" width="14.53" height="259.19"/><rect class="cls-9" x="662.28" y="277.06" width="154.13" height="10.14"/><rect class="cls-9" x="662.28" y="315.73" width="154.13" height="10.14"/><rect class="cls-9" x="662.28" y="332.8" width="154.13" height="10.13"/><rect class="cls-9" x="662.28" y="375.73" width="154.13" height="10.14"/><rect class="cls-10" x="662.28" y="393.2" width="154.13" height="10.14"/><rect class="cls-10" x="662.28" y="410.93" width="154.13" height="10.13"/><rect class="cls-6" x="662.28" y="444.53" width="154.13" height="10.13"/><rect class="cls-6" x="662.28" y="466.93" width="154.13" height="10.14"/></g><g id="Pen"><g id="Pen-2" data-name="Pen"><path class="cls-11" d="M699.48,488.58c.82,4.83-1.58,9.6-5.36,10.66h0c-3.78,1-7.52-2-8.34-6.86L656.12,318.06c-.82-4.84,1.58-9.61,5.36-10.66h0c3.79-1.05,7.52,2,8.34,6.86Z"/><path class="cls-12" d="M663.08,307.21l32,188.41,3.73-1a11.21,11.21,0,0,0,.62-6L669.82,314.26C669.12,310.1,666.27,307.27,663.08,307.21Z"/><path class="cls-13" d="M683.37,368.29c.35,2.05-.67,4.08-2.28,4.52h0c-1.6.44-3.19-.85-3.54-2.91L669.75,324c-.35-2.05.67-4.08,2.27-4.52h0c1.61-.45,3.19.86,3.54,2.9Z"/><path class="cls-14" d="M656.12,318.06l29.65,174.32c.68,4,3.36,6.78,6.4,7h0L659.66,308.27C657,310.1,655.44,314.06,656.12,318.06Z"/><path class="cls-15" d="M706.2,518.29c0,4.95-3.14,9-7,9h0c-3.87,0-7-4-7-9V339.9c0-5,3.14-9,7-9h0c3.87,0,7,4,7,9Z"/><path class="cls-12" d="M700.78,331.18V526.91s1.69,0,3.81-2.91a9.91,9.91,0,0,0,1.61-5.7V339.9C706.2,335.65,703.88,332.1,700.78,331.18Z"/><path class="cls-16" d="M710.45,396.38c0,2.1-1.33,3.8-3,3.8h0c-1.64,0-3-1.71-3-3.8v-47c0-2.1,1.33-3.8,3-3.8h0c1.64,0,3,1.7,3,3.8Z"/><path class="cls-17" d="M692.17,339.9V518.29c0,4.1,2.15,7.55,5.09,8.61h0V331.29C694.33,332.36,692.17,335.81,692.17,339.9Z"/><path class="cls-9" d="M746.7,483.85c-.6,4.89-4.18,8.24-8,7.47h0c-3.83-.76-6.45-5.34-5.85-10.23l21.51-176.26c.6-4.89,4.18-8.24,8-7.47h0c3.83.76,6.45,5.35,5.85,10.23Z"/><path class="cls-12" d="M763.92,297.91l-23.59,193.5s1.93,0,4.1-2.23a9.19,9.19,0,0,0,2.27-5.32l21.52-176.26C768.73,303.4,766.87,299.43,763.92,297.91Z"/><path class="cls-18" d="M765.61,364.23c-.25,2.08-1.77,3.5-3.4,3.17h0c-1.62-.33-2.73-2.27-2.48-4.34l5.67-46.41c.25-2.08,1.77-3.5,3.4-3.17h0c1.62.33,2.73,2.27,2.48,4.34Z"/><path class="cls-19" d="M754.36,304.83,732.85,481.09c-.49,4,1.22,7.87,4,9.5h0l23.59-193.27C757.4,297.8,754.86,300.78,754.36,304.83Z"/></g></g></g><g id="Correction"><g id="Laptop"><rect class="cls-20" x="1065.94" y="779.95" width="295.6" height="13.72"/><path class="cls-21" d="M1433.44,612.91H988.82c-20.38,0-26.67,12.8-22.74,27.92,0-.18,0-.36,0-.55a10.5,10.5,0,0,0,.32,3.12l32.18,121.46c4.86,18.44,9.23,19,33.22,19l371.75,0c19.3,0,28.71,0,32.54-18.48l25.06-121.93a11.3,11.3,0,0,0,.17-1.39v0l1.21-10.33C1464.3,616.88,1444.77,612.91,1433.44,612.91ZM966.31,638.67a8.59,8.59,0,0,0-.14.87C966.2,639.24,966.25,639,966.31,638.67Zm1-2.83c-.07.14-.15.28-.21.42C967.13,636.12,967.21,636,967.28,635.84Zm-.55,1.32c-.08.23-.17.47-.24.71C966.56,637.62,966.64,637.39,966.73,637.15Zm18.15-11.89c.67-.06,1.34-.09,2-.09C986.22,625.17,985.55,625.2,984.88,625.26Zm-12.36,4.6.14-.1Zm1.46-1,.28-.18Zm1.59-.9.43-.21Zm1.71-.8.56-.23Zm1.8-.69.73-.23Zm1.88-.55c.3-.08.61-.14.91-.2C981.56,625.81,981.25,625.87,981,625.94Zm1.94-.42c.39-.07.78-.11,1.18-.16C983.67,625.42,983.28,625.46,982.89,625.53Z"/><path class="cls-22" d="M988.82,612.91h444.62c11.33,0,30.86,4,29.14,18.8L1461.37,642c-1.64-7.69-11.23-16.87-20.63-16.87H986.89c-10.22,0-20.91,7.08-20.8,15.66-3.94-15.12,2.36-27.92,22.74-27.92Z"/><polygon class="cls-23" points="988.71 633.75 1441.34 633.25 1416.93 774.73 1017.1 774.84 988.71 633.75"/><path class="cls-24" d="M1011,788h408.19a12.34,12.34,0,0,1,12.3,12.29v225.09a12.34,12.34,0,0,1-12.3,12.3H1011a12.34,12.34,0,0,1-12.3-12.3V800.29A12.34,12.34,0,0,1,1011,788Z"/><path class="cls-12" d="M1431.44,800.29a12.34,12.34,0,0,0-12.3-12.29h-34.37l-260.19,249.67h294.56a12.34,12.34,0,0,0,12.3-12.3Z"/><rect class="cls-25" x="1157.22" y="961.53" width="115.63" height="60.52"/><rect class="cls-8" x="1020.11" y="809.08" width="389.86" height="141.72"/><g id="Keyboard"><path class="cls-26" d="M1028.55,817.46h18.1a2.28,2.28,0,0,1,1.92,2.52v19.49a2.28,2.28,0,0,1-1.92,2.52h-18.1a2.31,2.31,0,0,1-2-2.52V820a2.31,2.31,0,0,1,2-2.52Z"/><path class="cls-26" d="M1057.92,817.46H1076a2.31,2.31,0,0,1,2,2.52v19.49a2.31,2.31,0,0,1-2,2.52h-18.1a2.31,2.31,0,0,1-2-2.52V820a2.31,2.31,0,0,1,2-2.52Z"/><path class="cls-26" d="M1087.31,817.46h18.06a2.31,2.31,0,0,1,2,2.52v19.49a2.31,2.31,0,0,1-2,2.52h-18.06a2.31,2.31,0,0,1-2-2.52V820a2.31,2.31,0,0,1,2-2.52Z"/><path class="cls-26" d="M1116.68,817.46h18.06a2.28,2.28,0,0,1,2,2.52v19.49a2.28,2.28,0,0,1-2,2.52h-18.06a2.31,2.31,0,0,1-2-2.52V820a2.31,2.31,0,0,1,2-2.52Z"/><path class="cls-26" d="M1146,817.46h18.1a2.31,2.31,0,0,1,2,2.52v19.49a2.31,2.31,0,0,1-2,2.52H1146a2.31,2.31,0,0,1-2-2.52V820a2.31,2.31,0,0,1,2-2.52Z"/><path class="cls-26" d="M1175.44,817.46h18.06a2.31,2.31,0,0,1,2,2.52v19.49a2.31,2.31,0,0,1-2,2.52h-18.06a2.31,2.31,0,0,1-2-2.52V820a2.31,2.31,0,0,1,2-2.52Z"/><path class="cls-26" d="M1204.8,817.46h18.06a2.28,2.28,0,0,1,2,2.52v19.49a2.28,2.28,0,0,1-2,2.52H1204.8a2.31,2.31,0,0,1-2-2.52V820a2.31,2.31,0,0,1,2-2.52Z"/><path class="cls-26" d="M1234.16,817.46h18.1a2.31,2.31,0,0,1,2,2.52v19.49a2.31,2.31,0,0,1-2,2.52h-18.1a2.3,2.3,0,0,1-2-2.52V820a2.3,2.3,0,0,1,2-2.52Z"/><path class="cls-26" d="M1263.56,817.46h18.06a2.31,2.31,0,0,1,2,2.52v19.49a2.31,2.31,0,0,1-2,2.52h-18.06a2.28,2.28,0,0,1-2-2.52V820a2.28,2.28,0,0,1,2-2.52Z"/><path class="cls-26" d="M1292.93,817.46H1311a2.28,2.28,0,0,1,2,2.52v19.49a2.28,2.28,0,0,1-2,2.52h-18.06a2.3,2.3,0,0,1-2-2.52V820a2.3,2.3,0,0,1,2-2.52Z"/><path class="cls-26" d="M1322.29,817.46h18.1a2.3,2.3,0,0,1,2,2.52v19.49a2.3,2.3,0,0,1-2,2.52h-18.1a2.3,2.3,0,0,1-2-2.52V820a2.3,2.3,0,0,1,2-2.52Z"/><path class="cls-26" d="M1072.65,851.5h18.06a2.31,2.31,0,0,1,2,2.52V873.5a2.31,2.31,0,0,1-2,2.52h-18.06a2.31,2.31,0,0,1-2-2.52V854a2.31,2.31,0,0,1,2-2.52Z"/><path class="cls-26" d="M1102,851.5h18.1a2.31,2.31,0,0,1,2,2.52V873.5a2.31,2.31,0,0,1-2,2.52H1102a2.31,2.31,0,0,1-2-2.52V854a2.31,2.31,0,0,1,2-2.52Z"/><path class="cls-26" d="M1131.38,851.5h18.1a2.31,2.31,0,0,1,2,2.52V873.5a2.31,2.31,0,0,1-2,2.52h-18.1a2.28,2.28,0,0,1-1.92-2.52V854a2.28,2.28,0,0,1,1.92-2.52Z"/><path class="cls-26" d="M1160.77,851.5h18.06a2.3,2.3,0,0,1,2,2.52V873.5a2.3,2.3,0,0,1-2,2.52h-18.06a2.31,2.31,0,0,1-2-2.52V854a2.31,2.31,0,0,1,2-2.52Z"/><path class="cls-26" d="M1190.14,851.5h18.1a2.28,2.28,0,0,1,1.92,2.52V873.5a2.28,2.28,0,0,1-1.92,2.52h-18.1a2.31,2.31,0,0,1-2-2.52V854a2.31,2.31,0,0,1,2-2.52Z"/><path class="cls-26" d="M1219.5,851.5h18.1a2.31,2.31,0,0,1,2,2.52V873.5a2.31,2.31,0,0,1-2,2.52h-18.1a2.31,2.31,0,0,1-2-2.52V854a2.31,2.31,0,0,1,2-2.52Z"/><path class="cls-26" d="M1248.9,851.5H1267a2.31,2.31,0,0,1,2,2.52V873.5a2.31,2.31,0,0,1-2,2.52H1248.9a2.31,2.31,0,0,1-2-2.52V854a2.31,2.31,0,0,1,2-2.52Z"/><path class="cls-26" d="M1278.26,851.5h18.1a2.28,2.28,0,0,1,1.92,2.52V873.5a2.28,2.28,0,0,1-1.92,2.52h-18.1a2.3,2.3,0,0,1-2-2.52V854a2.3,2.3,0,0,1,2-2.52Z"/><path class="cls-26" d="M1307.62,851.5h18.1a2.3,2.3,0,0,1,2,2.52V873.5a2.3,2.3,0,0,1-2,2.52h-18.1a2.31,2.31,0,0,1-2-2.52V854a2.31,2.31,0,0,1,2-2.52Z"/><path class="cls-26" d="M1337,851.5h18.06a2.3,2.3,0,0,1,2,2.52V873.5a2.3,2.3,0,0,1-2,2.52H1337a2.31,2.31,0,0,1-2-2.52V854a2.31,2.31,0,0,1,2-2.52Z"/><path class="cls-26" d="M1351.69,817.46h18.06a2.31,2.31,0,0,1,2,2.52v19.49a2.31,2.31,0,0,1-2,2.52h-18.06a2.28,2.28,0,0,1-2-2.52V820a2.28,2.28,0,0,1,2-2.52Z"/><path class="cls-26" d="M1381,817.46h18.06a2.3,2.3,0,0,1,2,2.52v19.49a2.3,2.3,0,0,1-2,2.52H1381a2.3,2.3,0,0,1-2-2.52V820a2.3,2.3,0,0,1,2-2.52Z"/><path class="cls-26" d="M1366.87,851.5h32.24a2.3,2.3,0,0,1,2,2.52V873.5a2.3,2.3,0,0,1-2,2.52h-32.24a2.31,2.31,0,0,1-2-2.52V854a2.31,2.31,0,0,1,2-2.52Z"/><path class="cls-26" d="M1028.85,851.5h33.46a2.3,2.3,0,0,1,2,2.52V873.5a2.3,2.3,0,0,1-2,2.52h-33.46a2.28,2.28,0,0,1-2-2.52V854a2.28,2.28,0,0,1,2-2.52Z"/><path class="cls-26" d="M1028.85,885.53h40a2.31,2.31,0,0,1,2,2.52v19.49a2.31,2.31,0,0,1-2,2.52h-40a2.28,2.28,0,0,1-2-2.52V888.05a2.28,2.28,0,0,1,2-2.52Z"/><path class="cls-26" d="M1028.85,919.58h18a2.3,2.3,0,0,1,2,2.52v19.49a2.3,2.3,0,0,1-2,2.52h-18a2.28,2.28,0,0,1-2-2.52V922.1a2.28,2.28,0,0,1,2-2.52Z"/><path class="cls-26" d="M1058.17,919.58h18a2.31,2.31,0,0,1,2,2.52v19.49a2.31,2.31,0,0,1-2,2.52h-18a2.31,2.31,0,0,1-2-2.52V922.1a2.31,2.31,0,0,1,2-2.52Z"/><path class="cls-26" d="M1087.5,919.58h18a2.28,2.28,0,0,1,2,2.52v19.49a2.28,2.28,0,0,1-2,2.52h-18a2.31,2.31,0,0,1-2-2.52V922.1a2.31,2.31,0,0,1,2-2.52Z"/><path class="cls-26" d="M1116.83,919.58h187.81a2.28,2.28,0,0,1,2,2.52v19.49a2.28,2.28,0,0,1-2,2.52H1116.83a2.31,2.31,0,0,1-2-2.52V922.1a2.31,2.31,0,0,1,2-2.52Z"/><path class="cls-26" d="M1079.67,885.87h18.06a2.31,2.31,0,0,1,2,2.52v19.49a2.31,2.31,0,0,1-2,2.52h-18.06a2.31,2.31,0,0,1-2-2.52V888.39a2.31,2.31,0,0,1,2-2.52Z"/><path class="cls-26" d="M1109,885.87h18.1a2.31,2.31,0,0,1,2,2.52v19.49a2.31,2.31,0,0,1-2,2.52H1109a2.31,2.31,0,0,1-2-2.52V888.39a2.31,2.31,0,0,1,2-2.52Z"/><path class="cls-26" d="M1138.4,885.87h18.1a2.31,2.31,0,0,1,2,2.52v19.49a2.31,2.31,0,0,1-2,2.52h-18.1a2.28,2.28,0,0,1-1.92-2.52V888.39a2.28,2.28,0,0,1,1.92-2.52Z"/><path class="cls-26" d="M1167.79,885.87h18.06a2.31,2.31,0,0,1,2,2.52v19.49a2.31,2.31,0,0,1-2,2.52h-18.06a2.31,2.31,0,0,1-2-2.52V888.39a2.31,2.31,0,0,1,2-2.52Z"/><path class="cls-26" d="M1197.15,885.87h18.1a2.29,2.29,0,0,1,1.92,2.52v19.49a2.28,2.28,0,0,1-1.92,2.52h-18.1a2.31,2.31,0,0,1-2-2.52V888.39a2.31,2.31,0,0,1,2-2.52Z"/><path class="cls-26" d="M1226.52,885.87h18.09a2.32,2.32,0,0,1,2,2.52v19.49a2.31,2.31,0,0,1-2,2.52h-18.09a2.31,2.31,0,0,1-2-2.52V888.39a2.31,2.31,0,0,1,2-2.52Z"/><path class="cls-26" d="M1255.92,885.87H1274a2.31,2.31,0,0,1,2,2.52v19.49a2.31,2.31,0,0,1-2,2.52h-18.06a2.31,2.31,0,0,1-2-2.52V888.39a2.31,2.31,0,0,1,2-2.52Z"/><path class="cls-26" d="M1285.28,885.87h18.1a2.29,2.29,0,0,1,1.92,2.52v19.49a2.28,2.28,0,0,1-1.92,2.52h-18.1a2.31,2.31,0,0,1-2-2.52V888.39a2.31,2.31,0,0,1,2-2.52Z"/><path class="cls-26" d="M1314.64,885.87h33.65a2.31,2.31,0,0,1,2,2.52v19.49a2.31,2.31,0,0,1-2,2.52h-33.65a2.3,2.3,0,0,1-2-2.52V888.39a2.31,2.31,0,0,1,2-2.52Z"/><path class="cls-26" d="M1358.92,885.53h40a2.31,2.31,0,0,1,2,2.52v19.49a2.31,2.31,0,0,1-2,2.52h-40a2.31,2.31,0,0,1-2-2.52V888.05a2.31,2.31,0,0,1,2-2.52Z"/><path class="cls-26" d="M1362.51,919.58h15.07a.8.8,0,0,1,.7.85v6.75a.8.8,0,0,1-.7.85h-15.07a.77.77,0,0,1-.66-.85v-6.75a.78.78,0,0,1,.66-.85Z"/><path class="cls-26" d="M1362.51,934.26h15.07a.8.8,0,0,1,.7.86v6.7a.8.8,0,0,1-.7.86h-15.07a.78.78,0,0,1-.66-.86v-6.7a.78.78,0,0,1,.66-.86Z"/><path class="cls-26" d="M1340.16,934.26h15.07a.8.8,0,0,1,.7.86v6.7a.8.8,0,0,1-.7.86h-15.07a.78.78,0,0,1-.66-.86v-6.7a.78.78,0,0,1,.66-.86Z"/><path class="cls-26" d="M1384.81,934.26h15.07a.78.78,0,0,1,.67.86v6.7a.78.78,0,0,1-.67.86h-15.07a.81.81,0,0,1-.7-.86v-6.7a.81.81,0,0,1,.7-.86Z"/><path class="cls-26" d="M1313.94,919.58H1332a2.31,2.31,0,0,1,2,2.52v19.49a2.31,2.31,0,0,1-2,2.52h-18.1a2.3,2.3,0,0,1-2-2.52V922.1a2.3,2.3,0,0,1,2-2.52Z"/></g></g><g id="Lens"><path class="cls-27" d="M1320.48,544.26a17.84,17.84,0,0,1,24.81,4.56h0a17.85,17.85,0,0,1-4.56,24.81L1260.47,629a17.83,17.83,0,0,1-24.8-4.56h0a17.83,17.83,0,0,1,4.56-24.8Z"/><path class="cls-12" d="M1315.93,550.7a15.13,15.13,0,0,1,21,3.86h0a15.13,15.13,0,0,1-3.86,21l-68.09,47a15.12,15.12,0,0,1-21-3.87h0a15.13,15.13,0,0,1,3.87-21Z"/><path class="cls-5" d="M1233.14,609.61a17.8,17.8,0,0,0,13.55,22.13c1.24-3.54,0-9.09-3.47-14.15C1240.3,613.36,1236.5,610.49,1233.14,609.61Z"/><path class="cls-28" d="M1107.27,613.54a81.85,81.85,0,1,0,118.93,29.36l17.47-12.05s3.26-15-11-18l-18.54,12.79A81.86,81.86,0,0,0,1107.27,613.54Zm99.17,31a64,64,0,1,1-89-16.36A64,64,0,0,1,1206.44,644.58Z"/><path class="cls-12" d="M1090,687.23a64,64,0,0,0,95.47,49.24C1126.19,750.43,1100.13,711.12,1090,687.23Z"/></g><g id="Active"><g id="Active1"><path class="cls-29" d="M1194.73,725a22.57,22.57,0,0,1,6.72,3.87l9.31-3.84,6.26,10.84-7.8,6.47a23.19,23.19,0,0,1,.34,4,22.22,22.22,0,0,1-.27,3.51l8.12,6.26-6.26,10.84-9.36-3.46a22.53,22.53,0,0,1-6.63,4l-1.32,9.9h-12.52l-1.66-9.74a22.11,22.11,0,0,1-6.72-3.87l-9.32,3.84-6.26-10.85,7.8-6.47a22.78,22.78,0,0,1-.07-7.49l-8.12-6.24,6.26-10.85,9.36,3.47a22.13,22.13,0,0,1,6.63-4l1.32-9.9h12.53Z"/><path class="cls-22" d="M1187.19,762.58a16.28,16.28,0,1,0-16.28-16.28,16.31,16.31,0,0,0,16.28,16.28Z"/><path class="cls-30" d="M1187.2,757.1a10.79,10.79,0,1,0-10.79-10.79,10.82,10.82,0,0,0,10.79,10.79Z"/></g><g id="Active-2" data-name="Active"><path class="cls-31" d="M1217.21,632.38a32.94,32.94,0,0,1,11.23,2.4l11.4-9.66,13.76,12.45-8.06,12.67a33.83,33.83,0,0,1,3.51,10.52l14.29,5.12-3.9,18.14-14.78-.64a33.09,33.09,0,0,1-7.53,8.67l2.63,14.56-17.66,5.69-6.77-13a32.83,32.83,0,0,1-11.23-2.4l-11.4,9.64-13.76-12.44,8.07-12.68a33.93,33.93,0,0,1-2.29-5.44,34.7,34.7,0,0,1-1.22-5.09l-14.29-5.13,3.9-18.14,14.78.64a33,33,0,0,1,7.53-8.67l-2.64-14.56,17.66-5.69Z"/><path class="cls-22" d="M1216.27,692.11A26.24,26.24,0,1,0,1190,665.86a26.31,26.31,0,0,0,26.25,26.25Z"/><path class="cls-30" d="M1221.18,681.09A16,16,0,1,0,1201,670.77a16,16,0,0,0,20.13,10.32Z"/></g></g><g id="Active-3" data-name="Active"><g id="Active1-2" data-name="Active1"><path class="cls-32" d="M1143.78,705.94a9.43,9.43,0,0,1,3.14-.72l1.75-3.8,5,1.53-.55,4.18a9.6,9.6,0,0,1,1.23,1.11,10,10,0,0,1,.91,1.15l4.24-.39,1.16,5.08-3.83,1.59a9.41,9.41,0,0,1-.89,3.1l2.4,3.39-3.81,3.55-3.26-2.5a9.26,9.26,0,0,1-3.14.72l-1.75,3.81-5-1.54.55-4.18a9,9,0,0,1-1.23-1.11,9.42,9.42,0,0,1-.91-1.15l-4.24.39-1.16-5.07,3.83-1.59a9.25,9.25,0,0,1,.89-3.1l-2.4-3.39,3.82-3.54Z"/><path class="cls-22" d="M1152.12,719.53a6.77,6.77,0,1,0-9.57-.35,6.79,6.79,0,0,0,9.57.35Z"/><path class="cls-30" d="M1150.57,717.86a4.49,4.49,0,1,0-6.34-.23,4.49,4.49,0,0,0,6.34.23Z"/></g><g id="Active-4" data-name="Active"><path class="cls-33" d="M1124.42,671.35a13.85,13.85,0,0,1,4.11-2.44l.74-6.17,7.72-.1,1.13,6.14a14,14,0,0,1,2.24,1,14.28,14.28,0,0,1,1.81,1.2l5.8-2.48,3.95,6.63-4.68,4a13.83,13.83,0,0,1,.16,4.77l4.92,3.69-3.77,6.73-5.74-2a13.78,13.78,0,0,1-4.1,2.45l-.75,6.17-7.72.1-1.13-6.14a14.15,14.15,0,0,1-2.24-1,13.65,13.65,0,0,1-1.81-1.2l-5.8,2.48-3.95-6.63,4.68-4a13.63,13.63,0,0,1-.16-4.77l-4.93-3.69,3.77-6.73Z"/><path class="cls-22" d="M1141,689.83a10.91,10.91,0,1,0-15.43-.57,10.94,10.94,0,0,0,15.43.57Z"/><path class="cls-30" d="M1139.41,685.08a6.65,6.65,0,1,0-9.06,2.55,6.67,6.67,0,0,0,9.06-2.55Z"/></g></g></g><g id="Blooming"><path class="cls-34" d="M459.68,998c-24-21.19-13.08-70.64-13.08-70.64H375.07S386,976.78,362,998s-52,21.19-52,21.19v11.92H511.71v-11.92S483.68,1019.16,459.68,998Z"/><rect class="cls-35" x="309.95" y="1019.16" width="201.76" height="11.92"/><path class="cls-36" d="M176,604.15H645.71a31.79,31.79,0,0,1,31.79,31.79V895.55a31.78,31.78,0,0,1-31.78,31.78H176a31.79,31.79,0,0,1-31.79-31.79V635.94A31.79,31.79,0,0,1,176,604.15Z"/><path class="cls-25" d="M144.16,635.94v259.6A31.58,31.58,0,0,0,149,912.32H672.67a31.57,31.57,0,0,0,4.82-16.78V635.94a31.62,31.62,0,0,0-8.29-21.35H152.45A31.61,31.61,0,0,0,144.16,635.94Z"/><rect class="cls-37" x="167.12" y="625.34" width="487.42" height="275.94"/><rect class="cls-38" x="215.47" y="801.94" width="52.03" height="99.34"/><rect class="cls-39" x="303.77" y="771.99" width="52.03" height="129.3"/><rect class="cls-40" x="392.84" y="708.91" width="52.03" height="192.37"/><rect class="cls-41" x="485.87" y="675.8" width="52.03" height="225.48"/><rect class="cls-42" x="574.61" y="641.02" width="52.03" height="255.63"/><polygon class="cls-16" points="201.81 841.8 197 835.4 348.29 721.94 510.43 705.03 624.61 637.57 628.68 644.46 513 712.8 351.32 729.67 201.81 841.8"/><circle class="cls-43" cx="199.41" cy="838.61" r="13.01"/><circle class="cls-43" cx="349.81" cy="725.81" r="13.01"/><circle class="cls-43" cx="511.71" cy="708.91" r="13.01"/><circle class="cls-43" cx="626.64" cy="641.02" r="13"/></g><g id="Man"><polygon class="cls-44" points="703.68 988.46 710.94 924.32 868.47 892.12 865.72 941.99 872.32 983.7 849.54 1005.12 799.56 1023.59 728.84 1007.28 703.68 988.46"/><path class="cls-45" d="M682.6,983.7l24.54-25.84s24.41,60.29,84.25,56.67,77.26-54,77.26-54L900.2,983.7l2.28,58.48s-121,31.27-140.08,26.75-86.15-36.27-86.15-36.27Z"/><path class="cls-46" d="M900.2,983.7c-21.76,57.12-108.8,62.56-108.8,62.56s-87-5.44-108.8-62.56c0,0-201.28,49-217.6,242.08,0,0,81.6,160.48,326.4,176.8,244.8-16.32,326.4-176.8,326.4-176.8C1101.48,1032.66,900.2,983.7,900.2,983.7Z"/><path class="cls-47" d="M939.64,642.34C922,578.42,791.4,558,791.4,558s-130.56,20.4-148.24,84.32-4.08,137.36,15,194.49,57.12,127.84,133.28,155c76.16-27.2,114.24-97.92,133.28-155S957.32,706.26,939.64,642.34Z"/><path class="cls-12" d="M813.83,562.62C851,617,925.7,767.62,808.55,984.67c64.82-31,98.58-95.2,116.13-147.85,19-57.12,32.64-130.56,15-194.49C926.58,595.13,852,571.67,813.83,562.62Z"/><path class="cls-12" d="M1117.8,1225.78c-13.28-157.21-149.12-218.88-199.19-236.39,48.79,62.93,147.5,207.94,122.51,322.94C1096,1268.66,1117.8,1225.78,1117.8,1225.78Z"/></g></g></g></g></g></svg>