<svg id="Camada_1" data-name="Camada 1" xmlns="http://www.w3.org/2000/svg" viewBox="0 0 768 448"><defs><style>.cls-1{fill:#ff9429;}.cls-2{fill:#2d2014;}</style></defs><title>pagamento</title><g id="Camada_2" data-name="Camada 2"><g id="Camada_1-2" data-name="Camada 1-2"><g id="Camada_2-2" data-name="Camada 2-2"><g id="Camada_1-2-2" data-name="Camada 1-2-2"><path class="cls-1" d="M11.91,0h744a12,12,0,0,1,12,12V436a12,12,0,0,1-12,12h-744a12,12,0,0,1-12-12V12A12,12,0,0,1,11.91,0Z" transform="translate(0.09)"/></g></g><path class="cls-2" d="M383.85,24.14c-110.38,0-199.83,89.54-199.8,199.92S273.59,423.89,384,423.86s199.8-89.5,199.8-199.86S494.29,24.14,383.91,24.14Zm0,382.84a183,183,0,1,1,183-183h0A183,183,0,0,1,383.85,407Z" transform="translate(0.09)"/></g></g><path d="M500.47,278.82a15.34,15.34,0,0,0-12.07-3.95c-7.34.84-16.94,2.82-27.11,4.92-13.73,2.83-27.93,5.76-38.8,6.44-9.39.59-26.49-1.86-31.56-4.51a14.89,14.89,0,0,1-6.4-5.93h21.07A15.78,15.78,0,0,0,421.37,260V247.64a15.78,15.78,0,0,0-15.77-15.77H347.84c-2.45-.07-31.93-.63-52.34,16.78a81.53,81.53,0,0,0-8.78,8.64,13.19,13.19,0,0,0-10.32-5H257.57a5.66,5.66,0,0,0-5.66,5.66V337.9a5.66,5.66,0,0,0,5.66,5.66H276.4a13.23,13.23,0,0,0,13.22-13.22V326c5.63.35,18.39,1.75,45.41,6.82,31.89,6,51.8,8,67.48,8a203.88,203.88,0,0,0,30.07-2.42c12.06-1.7,27.23-6,40.62-9.78,6.2-1.75,12.05-3.41,17.23-4.72,14-3.52,16-12.32,16-17.25V292.25a18.26,18.26,0,0,0-6-13.44ZM278.3,330.34a1.9,1.9,0,0,1-1.9,1.9H263.23V263.63H276.4a1.9,1.9,0,0,1,1.9,1.9Zm216.85-23.67c0,1.2,0,4.39-7.49,6.28-5.34,1.34-11.27,3-17.54,4.8-13,3.69-27.82,7.87-39.12,9.46-22.26,3.13-40.82,4.44-93.88-5.52-27.29-5.12-40.83-6.67-47.49-7v-42a5.67,5.67,0,0,0,.55-.82c1.45-2.64,5-8.06,12.67-14.58,17.44-14.88,44.41-14.09,44.68-14.08h58.09a4.46,4.46,0,0,1,4.45,4.45V260a4.46,4.46,0,0,1-4.45,4.45H347.74a5.66,5.66,0,0,0,0,11.32h24.77c1.16,4.64,4.37,11.35,13.17,16,8,4.21,28,6.38,37.51,5.79,11.67-.73,26.26-3.74,40.38-6.65,9.91-2,19.28-4,26.11-4.76a4.17,4.17,0,0,1,3.25,1.15,6.87,6.87,0,0,1,2.21,5Zm0,0" transform="translate(0.09)"/><path d="M497.18,103.86H298.45a14.53,14.53,0,0,0-14.51,14.51v93.17A14.53,14.53,0,0,0,298.45,226H497.18a14.53,14.53,0,0,0,14.51-14.51V118.37a14.53,14.53,0,0,0-14.51-14.51ZM469.11,214.73H326.53a36.25,36.25,0,0,0-31.27-32.64V146.27a36.26,36.26,0,0,0,31.1-31.1H469.28a36.26,36.26,0,0,0,31.09,31.1v35.81a36.26,36.26,0,0,0-31.26,32.64Zm31.26-96.36v16.45a25,25,0,0,1-19.63-19.64h16.44a3.2,3.2,0,0,1,3.19,3.19Zm-201.92-3.19H314.9a25,25,0,0,1-19.65,19.65V118.37a3.2,3.2,0,0,1,3.19-3.19Zm-3.19,96.36v-18a24.93,24.93,0,0,1,19.89,21.19h-16.7a3.2,3.2,0,0,1-3.19-3.19Zm201.92,3.19H480.49a24.94,24.94,0,0,1,19.88-21.19v18a3.2,3.2,0,0,1-3.19,3.19Zm0,0" transform="translate(0.09)"/><path d="M398.12,124.47a40.48,40.48,0,1,0,40.48,40.48,40.52,40.52,0,0,0-40.48-40.48Zm0,69.64A29.16,29.16,0,1,1,427.28,165a29.19,29.19,0,0,1-29.16,29.16Zm0,0" transform="translate(0.09)"/><path d="M333,147.55A17.4,17.4,0,1,0,350.38,165,17.42,17.42,0,0,0,333,147.55ZM333,171a6.09,6.09,0,1,1,6.09-6.09A6.09,6.09,0,0,1,333,171Zm0,0" transform="translate(0.09)"/><path d="M463.25,147.55A17.4,17.4,0,1,0,480.66,165a17.42,17.42,0,0,0-17.4-17.41Zm0,23.49a6.09,6.09,0,1,1,6.09-6.09,6.09,6.09,0,0,1-6.09,6.09Zm0,0" transform="translate(0.09)"/></svg>